<?xml version="1.0" encoding="utf-8" standalone="no"?>
<!DOCTYPE svg PUBLIC "-//W3C//DTD SVG 1.1//EN"
  "http://www.w3.org/Graphics/SVG/1.1/DTD/svg11.dtd">
<svg xmlns:xlink="http://www.w3.org/1999/xlink" width="389.3pt" height="87.4575pt" viewBox="0 0 389.3 87.4575" xmlns="http://www.w3.org/2000/svg" version="1.1">
 <metadata>
  <rdf:RDF xmlns:dc="http://purl.org/dc/elements/1.1/" xmlns:cc="http://creativecommons.org/ns#" xmlns:rdf="http://www.w3.org/1999/02/22-rdf-syntax-ns#">
   <cc:Work>
    <dc:type rdf:resource="http://purl.org/dc/dcmitype/StillImage"/>
    <dc:date>2026-07-30T12:04:49.393370</dc:date>
    <dc:format>image/svg+xml</dc:format>
    <dc:creator>
     <cc:Agent>
      <dc:title>Matplotlib v3.10.8, https://matplotlib.org/</dc:title>
     </cc:Agent>
    </dc:creator>
   </cc:Work>
  </rdf:RDF>
 </metadata>
 <defs>
  <style type="text/css">*{stroke-linejoin: round; stroke-linecap: butt}</style>
 </defs>
 <g id="figure_1">
  <g id="patch_1">
   <path d="M 0 87.4575 
L 389.3 87.4575 
L 389.3 -0 
L 0 -0 
z
" style="fill: #ffffff"/>
  </g>
  <g id="legend_1">
   <g id="text_1">
    <text style="font-size: 16px; font-family: 'Arial Nova', 'Arial', 'Helvetica', 'DejaVu Sans', sans-serif; text-anchor: start" x="151.64375" y="25.0525" transform="rotate(-0 151.64375 25.0525)">Relationship</text>
   </g>
   <g id="line2d_1">
    <defs>
     <path id="mcb3b545188" d="M 0 3.25 
C 0.86191 3.25 1.688635 2.907559 2.298097 2.298097 
C 2.907559 1.688635 3.25 0.86191 3.25 0 
C 3.25 -0.86191 2.907559 -1.688635 2.298097 -2.298097 
C 1.688635 -2.907559 0.86191 -3.25 0 -3.25 
C -0.86191 -3.25 -1.688635 -2.907559 -2.298097 -2.298097 
C -2.907559 -1.688635 -3.25 -0.86191 -3.25 0 
C -3.25 0.86191 -2.907559 1.688635 -2.298097 2.298097 
C -1.688635 2.907559 -0.86191 3.25 0 3.25 
z
" style="stroke: #ffffff; stroke-width: 0.5"/>
    </defs>
    <g>
     <use xlink:href="#mcb3b545188" x="29.6" y="42.2725" style="fill: #083370; stroke: #ffffff; stroke-width: 0.5"/>
    </g>
   </g>
   <g id="text_2">
    <text style="font-size: 16px; font-family: 'Arial Nova', 'Arial', 'Helvetica', 'DejaVu Sans', sans-serif; text-anchor: start" x="53.6" y="47.8725" transform="rotate(-0 53.6 47.8725)">Maximally formal</text>
   </g>
   <g id="line2d_2">
    <defs>
     <path id="m5cfe6d5a9a" d="M 0 3.25 
C 0.86191 3.25 1.688635 2.907559 2.298097 2.298097 
C 2.907559 1.688635 3.25 0.86191 3.25 0 
C 3.25 -0.86191 2.907559 -1.688635 2.298097 -2.298097 
C 1.688635 -2.907559 0.86191 -3.25 0 -3.25 
C -0.86191 -3.25 -1.688635 -2.907559 -2.298097 -2.298097 
C -2.907559 -1.688635 -3.25 -0.86191 -3.25 0 
C -3.25 0.86191 -2.907559 1.688635 -2.298097 2.298097 
C -1.688635 2.907559 -0.86191 3.25 0 3.25 
z
" style="stroke: #ffffff; stroke-width: 0.5"/>
    </defs>
    <g>
     <use xlink:href="#m5cfe6d5a9a" x="29.6" y="65.085" style="fill: #5b606e; stroke: #ffffff; stroke-width: 0.5"/>
    </g>
   </g>
   <g id="text_3">
    <text style="font-size: 16px; font-family: 'Arial Nova', 'Arial', 'Helvetica', 'DejaVu Sans', sans-serif; text-anchor: start" x="53.6" y="70.685" transform="rotate(-0 53.6 70.685)">Somewhat formal</text>
   </g>
   <g id="line2d_3">
    <defs>
     <path id="m45dba8ba61" d="M 0 3.25 
C 0.86191 3.25 1.688635 2.907559 2.298097 2.298097 
C 2.907559 1.688635 3.25 0.86191 3.25 0 
C 3.25 -0.86191 2.907559 -1.688635 2.298097 -2.298097 
C 1.688635 -2.907559 0.86191 -3.25 0 -3.25 
C -0.86191 -3.25 -1.688635 -2.907559 -2.298097 -2.298097 
C -2.907559 -1.688635 -3.25 -0.86191 -3.25 0 
C -3.25 0.86191 -2.907559 1.688635 -2.298097 2.298097 
C -1.688635 2.907559 -0.86191 3.25 0 3.25 
z
" style="stroke: #ffffff; stroke-width: 0.5"/>
    </defs>
    <g>
     <use xlink:href="#m45dba8ba61" x="216.97" y="42.2725" style="fill: #948e77; stroke: #ffffff; stroke-width: 0.5"/>
    </g>
   </g>
   <g id="text_4">
    <text style="font-size: 16px; font-family: 'Arial Nova', 'Arial', 'Helvetica', 'DejaVu Sans', sans-serif; text-anchor: start" x="240.97" y="47.8725" transform="rotate(-0 240.97 47.8725)">Somewhat intimate</text>
   </g>
   <g id="line2d_4">
    <defs>
     <path id="m0765e74379" d="M 0 3.25 
C 0.86191 3.25 1.688635 2.907559 2.298097 2.298097 
C 2.907559 1.688635 3.25 0.86191 3.25 0 
C 3.25 -0.86191 2.907559 -1.688635 2.298097 -2.298097 
C 1.688635 -2.907559 0.86191 -3.25 0 -3.25 
C -0.86191 -3.25 -1.688635 -2.907559 -2.298097 -2.298097 
C -2.907559 -1.688635 -3.25 -0.86191 -3.25 0 
C -3.25 0.86191 -2.907559 1.688635 -2.298097 2.298097 
C -1.688635 2.907559 -0.86191 3.25 0 3.25 
z
" style="stroke: #ffffff; stroke-width: 0.5"/>
    </defs>
    <g>
     <use xlink:href="#m0765e74379" x="216.97" y="64.8975" style="fill: #d6c35d; stroke: #ffffff; stroke-width: 0.5"/>
    </g>
   </g>
   <g id="text_5">
    <text style="font-size: 16px; font-family: 'Arial Nova', 'Arial', 'Helvetica', 'DejaVu Sans', sans-serif; text-anchor: start" x="240.97" y="70.4975" transform="rotate(-0 240.97 70.4975)">Maximally intimate</text>
   </g>
  </g>
 </g>
</svg>
