<?xml version="1.0" encoding="utf-8" standalone="no"?>
<!DOCTYPE svg PUBLIC "-//W3C//DTD SVG 1.1//EN"
  "http://www.w3.org/Graphics/SVG/1.1/DTD/svg11.dtd">
<svg xmlns:xlink="http://www.w3.org/1999/xlink" width="275.8525pt" height="64.8325pt" viewBox="0 0 275.8525 64.8325" xmlns="http://www.w3.org/2000/svg" version="1.1">
 <metadata>
  <rdf:RDF xmlns:dc="http://purl.org/dc/elements/1.1/" xmlns:cc="http://creativecommons.org/ns#" xmlns:rdf="http://www.w3.org/1999/02/22-rdf-syntax-ns#">
   <cc:Work>
    <dc:type rdf:resource="http://purl.org/dc/dcmitype/StillImage"/>
    <dc:date>2026-07-29T23:54:06.615999</dc:date>
    <dc:format>image/svg+xml</dc:format>
    <dc:creator>
     <cc:Agent>
      <dc:title>Matplotlib v3.10.8, https://matplotlib.org/</dc:title>
     </cc:Agent>
    </dc:creator>
   </cc:Work>
  </rdf:RDF>
 </metadata>
 <defs>
  <style type="text/css">*{stroke-linejoin: round; stroke-linecap: butt}</style>
 </defs>
 <g id="figure_1">
  <g id="patch_1">
   <path d="M 0 64.8325 
L 275.8525 64.8325 
L 275.8525 0 
L 0 0 
z
" style="fill: #ffffff"/>
  </g>
  <g id="legend_1">
   <g id="text_1">
    <text style="font-size: 16px; font-family: 'Arial Nova', 'Arial', 'Helvetica', 'DejaVu Sans', sans-serif; text-anchor: start" x="59.01" y="25.0525" transform="rotate(-0 59.01 25.0525)">Effort of low-risk share</text>
   </g>
   <g id="line2d_1">
    <defs>
     <path id="ma8e970cd2f" d="M 0 3.75 
C 0.994512 3.75 1.948425 3.354876 2.65165 2.65165 
C 3.354876 1.948425 3.75 0.994512 3.75 0 
C 3.75 -0.994512 3.354876 -1.948425 2.65165 -2.65165 
C 1.948425 -3.354876 0.994512 -3.75 0 -3.75 
C -0.994512 -3.75 -1.948425 -3.354876 -2.65165 -2.65165 
C -3.354876 -1.948425 -3.75 -0.994512 -3.75 0 
C -3.75 0.994512 -3.354876 1.948425 -2.65165 2.65165 
C -1.948425 3.354876 -0.994512 3.75 0 3.75 
z
" style="stroke: #ffffff; stroke-width: 0.5"/>
    </defs>
    <g>
     <use xlink:href="#ma8e970cd2f" x="29.6" y="42.2725" style="fill: #595959; stroke: #ffffff; stroke-width: 0.5"/>
    </g>
   </g>
   <g id="text_2">
    <text style="font-size: 16px; font-family: 'Arial Nova', 'Arial', 'Helvetica', 'DejaVu Sans', sans-serif; text-anchor: start" x="53.6" y="47.8725" transform="rotate(-0 53.6 47.8725)">Low effort</text>
   </g>
   <g id="line2d_2">
    <defs>
     <path id="m6dd6f30eb7" d="M 0 3.75 
C 0.994512 3.75 1.948425 3.354876 2.65165 2.65165 
C 3.354876 1.948425 3.75 0.994512 3.75 0 
C 3.75 -0.994512 3.354876 -1.948425 2.65165 -2.65165 
C 1.948425 -3.354876 0.994512 -3.75 0 -3.75 
C -0.994512 -3.75 -1.948425 -3.354876 -2.65165 -2.65165 
C -3.354876 -1.948425 -3.75 -0.994512 -3.75 0 
C -3.75 0.994512 -3.354876 1.948425 -2.65165 2.65165 
C -1.948425 3.354876 -0.994512 3.75 0 3.75 
z
" style="stroke: #595959; stroke-width: 1.3"/>
    </defs>
    <g>
     <use xlink:href="#m6dd6f30eb7" x="164.11" y="42.2725" style="fill: #ffffff; stroke: #595959; stroke-width: 1.3"/>
    </g>
   </g>
   <g id="text_3">
    <text style="font-size: 16px; font-family: 'Arial Nova', 'Arial', 'Helvetica', 'DejaVu Sans', sans-serif; text-anchor: start" x="188.11" y="47.8725" transform="rotate(-0 188.11 47.8725)">High effort</text>
   </g>
  </g>
 </g>
</svg>
