<?xml version="1.0" encoding="utf-8" standalone="no"?>
<!DOCTYPE svg PUBLIC "-//W3C//DTD SVG 1.1//EN"
  "http://www.w3.org/Graphics/SVG/1.1/DTD/svg11.dtd">
<svg xmlns:xlink="http://www.w3.org/1999/xlink" width="147.585pt" height="87.2625pt" viewBox="0 0 147.585 87.2625" xmlns="http://www.w3.org/2000/svg" version="1.1">
 <metadata>
  <rdf:RDF xmlns:dc="http://purl.org/dc/elements/1.1/" xmlns:cc="http://creativecommons.org/ns#" xmlns:rdf="http://www.w3.org/1999/02/22-rdf-syntax-ns#">
   <cc:Work>
    <dc:type rdf:resource="http://purl.org/dc/dcmitype/StillImage"/>
    <dc:date>2026-07-30T21:33:53.909428</dc:date>
    <dc:format>image/svg+xml</dc:format>
    <dc:creator>
     <cc:Agent>
      <dc:title>Matplotlib v3.10.8, https://matplotlib.org/</dc:title>
     </cc:Agent>
    </dc:creator>
   </cc:Work>
  </rdf:RDF>
 </metadata>
 <defs>
  <style type="text/css">*{stroke-linejoin: round; stroke-linecap: butt}</style>
 </defs>
 <g id="figure_1">
  <g id="patch_1">
   <path d="M -0 87.2625 
L 147.585 87.2625 
L 147.585 -0 
L -0 -0 
z
" style="fill: #ffffff"/>
  </g>
  <g id="legend_1">
   <g id="text_1">
    <text style="font-size: 16px; font-family: 'Arial Nova', 'Arial', 'Helvetica', 'DejaVu Sans', sans-serif; text-anchor: start" x="51.0775" y="25.0525" transform="rotate(-0 51.0775 25.0525)">Desire</text>
   </g>
   <g id="line2d_1">
    <defs>
     <path id="m1f70c8f3ca" d="M 0 4 
C 1.060812 4 2.078319 3.578535 2.828427 2.828427 
C 3.578535 2.078319 4 1.060812 4 0 
C 4 -1.060812 3.578535 -2.078319 2.828427 -2.828427 
C 2.078319 -3.578535 1.060812 -4 0 -4 
C -1.060812 -4 -2.078319 -3.578535 -2.828427 -2.828427 
C -3.578535 -2.078319 -4 -1.060812 -4 0 
C -4 1.060812 -3.578535 2.078319 -2.828427 2.828427 
C -2.078319 3.578535 -1.060812 4 0 4 
z
" style="stroke: #ffffff; stroke-width: 0.5"/>
    </defs>
    <g>
     <use xlink:href="#m1f70c8f3ca" x="29.6" y="42.0775" style="fill: #c9a8b0; stroke: #ffffff; stroke-width: 0.5"/>
    </g>
   </g>
   <g id="text_2">
    <text style="font-size: 16px; font-family: 'Arial Nova', 'Arial', 'Helvetica', 'DejaVu Sans', sans-serif; text-anchor: start" x="53.6" y="47.6775" transform="rotate(-0 53.6 47.6775)">Low desire</text>
   </g>
   <g id="line2d_2">
    <defs>
     <path id="me67e109908" d="M 0 4 
C 1.060812 4 2.078319 3.578535 2.828427 2.828427 
C 3.578535 2.078319 4 1.060812 4 0 
C 4 -1.060812 3.578535 -2.078319 2.828427 -2.828427 
C 2.078319 -3.578535 1.060812 -4 0 -4 
C -1.060812 -4 -2.078319 -3.578535 -2.828427 -2.828427 
C -3.578535 -2.078319 -4 -1.060812 -4 0 
C -4 1.060812 -3.578535 2.078319 -2.828427 2.828427 
C -2.078319 3.578535 -1.060812 4 0 4 
z
" style="stroke: #ffffff; stroke-width: 0.5"/>
    </defs>
    <g>
     <use xlink:href="#me67e109908" x="29.6" y="64.7025" style="fill: #7a4a5a; stroke: #ffffff; stroke-width: 0.5"/>
    </g>
   </g>
   <g id="text_3">
    <text style="font-size: 16px; font-family: 'Arial Nova', 'Arial', 'Helvetica', 'DejaVu Sans', sans-serif; text-anchor: start" x="53.6" y="70.3025" transform="rotate(-0 53.6 70.3025)">High desire</text>
   </g>
  </g>
 </g>
</svg>
